<svg width="20" height="20" viewBox="0 0 20 20" fill="none" xmlns="http://www.w3.org/2000/svg">
<path d="M10.0433 12.3571L11.2218 13.5356L14.7573 10L11.2218 6.4645L10.0433 7.64301L11.5669 9.1667H5.28599V10.8334H11.5669L10.0433 12.3571Z" fill="#FF862E"/>
<path fill-rule="evenodd" clip-rule="evenodd" d="M16.4818 16.4818C20.0616 12.902 20.0616 7.09799 16.4818 3.51819C12.902 -0.0616174 7.09797 -0.0616174 3.51817 3.51819C-0.0616385 7.09799 -0.0616385 12.902 3.51817 16.4818C7.09797 20.0616 12.902 20.0616 16.4818 16.4818ZM15.3033 15.3033C18.2322 12.3744 18.2322 7.62563 15.3033 4.6967C12.3743 1.76777 7.62561 1.76777 4.69668 4.6967C1.76775 7.62563 1.76775 12.3744 4.69668 15.3033C7.62561 18.2322 12.3743 18.2322 15.3033 15.3033Z" fill="#FF862E"/>
</svg>
