<svg width="26" height="26" viewBox="0 0 26 26" fill="none" xmlns="http://www.w3.org/2000/svg">
<path d="M10.9497 18.0326L5.99996 13.0829L7.64988 11.433L10.9497 14.7328L17.5494 8.13314L19.1993 9.78306L10.9497 18.0326Z" fill="#F96A02"/>
<path fill-rule="evenodd" clip-rule="evenodd" d="M0.166626 13C0.166626 5.91235 5.91231 0.166672 13 0.166672C20.0876 0.166672 25.8333 5.91235 25.8333 13C25.8333 20.0877 20.0876 25.8333 13 25.8333C5.91231 25.8333 0.166626 20.0877 0.166626 13ZM13 23.5C7.20097 23.5 2.49996 18.799 2.49996 13C2.49996 7.20102 7.20097 2.50001 13 2.50001C18.7989 2.50001 23.5 7.20102 23.5 13C23.5 18.799 18.7989 23.5 13 23.5Z" fill="#F96A02"/>
</svg>
