<svg width="22" height="25" viewBox="0 0 22 25" fill="none" xmlns="http://www.w3.org/2000/svg">
<path fill-rule="evenodd" clip-rule="evenodd" d="M21.5 9.13761L13.3576 1.86762C11.9908 0.647235 9.7747 0.647234 8.40787 1.86762L0.5 8.92822V24.0477H8.66667V17.7977C8.66667 16.6471 9.71134 15.7143 11 15.7143C12.2887 15.7143 13.3333 16.6471 13.3333 17.7977V24.0477H21.5V9.13761ZM10.0578 3.34076L2.83333 9.79117V21.9643H6.33333V17.7977C6.33333 15.4965 8.42267 13.631 11 13.631C13.5773 13.631 15.6667 15.4965 15.6667 17.7977V21.9643H19.1667V10.0006L11.7077 3.34076C11.2521 2.93397 10.5134 2.93397 10.0578 3.34076Z" fill="#FF862E"/>
</svg>
