<svg width="28" height="28" viewBox="0 0 28 28" fill="none" xmlns="http://www.w3.org/2000/svg">
<path fill-rule="evenodd" clip-rule="evenodd" d="M19 10.25C19 13.0114 16.7614 15.25 14 15.25C11.2386 15.25 9 13.0114 9 10.25C9 7.48858 11.2386 5.25 14 5.25C16.7614 5.25 19 7.48858 19 10.25ZM16.5 10.25C16.5 11.6307 15.3807 12.75 14 12.75C12.6193 12.75 11.5 11.6307 11.5 10.25C11.5 8.86929 12.6193 7.75 14 7.75C15.3807 7.75 16.5 8.86929 16.5 10.25Z" fill="#FF862E"/>
<path fill-rule="evenodd" clip-rule="evenodd" d="M14 0.25C6.40609 0.25 0.25 6.40609 0.25 14C0.25 21.5939 6.40609 27.75 14 27.75C21.5939 27.75 27.75 21.5939 27.75 14C27.75 6.40609 21.5939 0.25 14 0.25ZM2.75 14C2.75 16.6128 3.64068 19.0175 5.13498 20.9271C7.19056 18.2361 10.4328 16.5 14.0806 16.5C17.681 16.5 20.8864 18.1914 22.9456 20.8229C24.3913 18.9303 25.25 16.5654 25.25 14C25.25 7.7868 20.2132 2.75 14 2.75C7.7868 2.75 2.75 7.7868 2.75 14ZM14 25.25C11.3122 25.25 8.84457 24.3074 6.90959 22.7348C8.4919 20.4765 11.1138 19 14.0806 19C17.0106 19 19.6042 20.4401 21.1922 22.6511C19.2423 24.2739 16.7352 25.25 14 25.25Z" fill="#FF862E"/>
</svg>
