<svg width="77" height="77" viewBox="0 0 77 77" fill="none" xmlns="http://www.w3.org/2000/svg">
<path opacity="0.997" d="M71.8716 40.4276C71.8716 45.1468 70.9421 49.8198 69.1361 54.1797C67.3302 58.5397 64.6831 62.5012 61.3462 65.8382C58.0092 69.1752 54.0477 71.8222 49.6877 73.6281C45.3278 75.4341 40.6548 76.3635 35.9357 76.3635C26.4049 76.3635 17.2645 72.5774 10.5253 65.8381C3.78606 59.0988 -1.23335e-06 49.9584 0 40.4276C1.35654e-06 30.8968 3.78607 21.7564 10.5253 15.0171C17.2645 8.27783 26.4049 4.49172 35.9357 4.49168C40.6548 4.49167 45.3278 5.42117 49.6877 7.22711C54.0477 9.03305 58.0092 11.6801 61.3462 15.017C64.6831 18.354 67.3302 22.3155 69.1361 26.6755C70.9421 31.0354 71.8716 35.7084 71.8716 40.4276Z" fill="#18839C"/>
<path opacity="0.997" d="M76.3638 35.9359C76.3638 40.6551 75.4343 45.3281 73.6284 49.688C71.8224 54.048 69.1754 58.0095 65.8385 61.3465C62.5015 64.6834 58.54 67.3305 54.1801 69.1364C49.8201 70.9423 45.1472 71.8719 40.428 71.8718C35.7089 71.8719 31.0359 70.9423 26.676 69.1364C22.316 67.3305 18.3545 64.6834 15.0175 61.3465C11.6806 58.0095 9.03359 54.048 7.22764 49.688C5.4217 45.3281 4.49219 40.6551 4.49219 35.9359C4.49219 31.2167 5.4217 26.5438 7.22764 22.1838C9.03359 17.8239 11.6806 13.8623 15.0176 10.5254C18.3545 7.18841 22.316 4.54139 26.676 2.73545C31.0359 0.9295 35.7089 -5.4654e-06 40.428 0C45.1472 -5.1906e-06 49.8201 0.9295 54.1801 2.73545C58.54 4.54139 62.5015 7.18841 65.8385 10.5254C69.1754 13.8623 71.8224 17.8239 73.6284 22.1838C75.4343 26.5438 76.3638 31.2167 76.3638 35.9359Z" fill="#75D4EA"/>
<path d="M52.8831 36.4848C51.7705 37.0158 51.8248 37.3635 50.6656 37.5816C48.213 38.0429 46.8662 34.25 45.1023 35.1137C42.931 36.1768 41.7645 42.7223 41.7645 42.7223C41.7645 42.7223 41.4563 37.0987 39.8386 34.8647C38.2208 32.6307 30.1321 30.3196 30.1321 30.3196L31.4417 27.7774C31.4417 27.7774 34.3691 29.087 36.1409 29.01C37.9127 28.9329 39.9927 26.93 39.9927 26.93C39.9927 26.93 40.9941 25.3893 40.9941 24.696C40.9941 24.0027 30.5515 17.8403 27.0507 18.8413C26.0921 19.1154 20.4257 28.6248 20.5797 29.8574C20.7338 31.0899 23.353 38.7165 24.9708 40.7194C26.5885 42.7223 30.1665 46.409 30.0551 48.2689C29.6606 54.8568 26.9327 56.267 28.0709 59.4523C29.3754 63.1031 35.2599 62.8866 39.1337 63.0426C42.8825 63.1936 49.468 62.5975 50.0843 60.4405C50.7006 58.2835 48.3895 52.6599 49.391 50.3488C50.3924 48.0378 51.4487 44.8345 52.3548 43.0733C52.6182 42.5612 53.2646 41.1585 53.5118 39.8923C53.6623 39.1211 55.1254 35.4147 52.8831 36.4848Z" fill="#07252C"/>
<path d="M35.9223 19.4627C35.9223 19.4627 34.3868 18.7849 33.1283 18.2537C31.7582 17.6754 31.225 17.4511 30.12 17.2673C29.0686 17.0925 33.162 8.79036 34.1235 8.61221C35.0186 8.44637 35.8588 8.35812 37.162 8.85779C38.5865 9.40396 39.7552 10.4754 39.985 11.1474C40.2148 11.8194 37.5859 19.1849 35.9223 19.4627Z" fill="#07252C"/>
<path d="M42.6054 24.2801C41.7512 23.7795 42.4673 23.5477 40.4057 22.0401C39.2044 21.1617 37.3046 20.3712 37.3224 19.8469C37.3405 19.3136 41.2968 12.858 41.731 12.573C42.1652 12.2879 44.3493 11.9872 45.9844 13.1315C47.6195 14.2758 47.4902 16.5298 47.4732 16.9105C47.4561 17.2913 43.4926 24.7999 42.6054 24.2801Z" fill="#07252C"/>
<path d="M46.7268 31.1535C46.7268 31.1535 45.4376 31.8952 43.9557 30.2935C42.4737 28.6918 42.4033 26.9094 42.4033 26.9094C42.4033 26.9094 46.9147 19.0976 48.5999 18.2852C50.2851 17.4729 51.7639 18.1017 52.6651 18.8124C53.5664 19.5231 54.2353 21.831 54.0028 22.4578C53.7704 23.0845 49.843 28.815 46.7268 31.1535Z" fill="#07252C"/>
<path d="M51.1177 35.9548C51.1177 35.9548 49.9011 35.9135 48.8097 35.0634C47.7182 34.2133 47.1499 33.1049 47.6571 32.3642C48.1643 31.6236 52.5225 25.6083 54.1704 24.9114C55.8183 24.2145 57.3686 25.6165 57.8451 26.245C58.3216 26.8735 58.1594 28.4044 58.0317 29.1328C57.9039 29.8613 52.3043 35.88 51.1178 35.9548L51.1177 35.9548Z" fill="#07252C"/>
</svg>
