<svg width="85" height="71" viewBox="0 0 85 71" fill="none" xmlns="http://www.w3.org/2000/svg">
<path d="M41.152 13.8982C54.9675 13.8982 66.0897 13.3309 66.0897 27.1464V44.291C66.0897 58.1065 54.9675 64.5529 41.152 64.5529C27.3366 64.5529 16.2144 58.1065 16.2144 44.291V27.1464C16.2144 13.3309 27.3366 13.8982 41.152 13.8982Z" fill="#18839C"/>
<path d="M82.2969 29.9369V22.1115L44.0908 32.5736V42.9649L82.2969 29.9369Z" fill="#18839C"/>
<path d="M44.0908 42.965V32.5736H38.2134V42.965C38.2134 42.965 40.1424 43.6997 41.1521 43.6997C42.1619 43.6997 44.0908 42.965 44.0908 42.965Z" fill="#18839C"/>
<path d="M38.2134 42.9649V32.5736L0.00732422 21.9112V29.9369L38.2134 42.9649Z" fill="#18839C"/>
<path d="M44.0039 8.40763L81.0827 21.076C82.6628 21.6159 82.6628 22.4851 81.0827 23.0249L44.0039 35.6933C42.4238 36.2331 39.8796 36.2331 38.2995 35.6933L1.22075 23.0249C-0.35939 22.4851 -0.35939 21.6159 1.22075 21.076L38.2995 8.40763C39.8796 7.86772 42.4238 7.86772 44.0039 8.40763Z" fill="#18839C"/>
<path d="M0 21.9195L2.70762 17.2418C2.70762 17.2418 6.30412 22.3674 5.97942 22.3999C5.65503 22.4321 1.92051 24.3157 1.92051 24.3157L0 21.9195Z" fill="#18839C"/>
<path d="M82.3022 29.9331L84.9405 25.4116C84.9405 25.4116 83.0978 25.1275 82.9272 25.2005C82.7568 25.2736 80.9385 25.923 80.9385 25.923C80.9385 25.923 81.3602 27.79 81.4176 27.79C81.4726 27.79 82.3024 29.9331 82.3024 29.9331H82.3022Z" fill="#18839C"/>
<path d="M43.8029 9.38445C57.6183 9.38445 68.7406 8.81712 68.7406 22.6326V39.7772C68.7406 53.5927 57.6183 60.0391 43.8029 60.0391C29.9874 60.0391 18.8652 53.5927 18.8652 39.7772V22.6326C18.8652 8.81712 29.9874 9.38445 43.8029 9.38445Z" fill="#75D4EA"/>
<path d="M84.9478 25.4231V17.5977L46.7417 28.0598V38.4511L84.9478 25.4231Z" fill="#20B3D5"/>
<path d="M46.7417 38.4511V28.0598H40.8643V38.4511C40.8643 38.4511 42.7933 39.1858 43.803 39.1858C44.8127 39.1858 46.7417 38.4511 46.7417 38.4511Z" fill="#3A57FE"/>
<path d="M40.8643 38.4512V28.0598L2.6582 17.3974V25.4231L40.8643 38.4512Z" fill="#20B3D5"/>
<path d="M46.4244 11.3648L82.1497 24.116C83.6722 24.6594 83.6722 25.5343 82.1497 26.0777L46.4244 38.8289C44.9019 39.3722 42.4506 39.3722 40.9282 38.8289L5.20287 26.0777C3.68042 25.5343 3.68042 24.6594 5.20287 24.116L40.9282 11.3648C42.4506 10.8214 44.9019 10.8214 46.4244 11.3648Z" fill="#20B3D5"/>
<path d="M46.6605 3.89384L83.8125 16.5622C85.3958 17.1021 85.3958 17.9713 83.8125 18.5112L46.6605 31.1795C45.0773 31.7193 42.5281 31.7193 40.9448 31.1795L3.79292 18.5112C2.20967 17.9713 2.20964 17.1021 3.79289 16.5622L40.9448 3.89384C42.5281 3.35393 45.0773 3.35393 46.6605 3.89384Z" fill="#75D4EA"/>
<g opacity="0.998">
<g opacity="0.998">
<g opacity="0.998">
<g opacity="0.998">
<path opacity="0.995" d="M45.9672 16.5711C45.211 16.6063 44.5872 17.0079 44.4249 17.6345C44.2084 18.47 44.8998 19.3822 45.975 19.6802L66.817 25.46V48.4454C66.817 49.5967 67.4877 50.5235 68.324 50.5235C69.1603 50.5235 69.8348 49.5967 69.8348 48.4454V25.4154C69.8334 25.0551 69.8584 26.1581 69.8348 25.4154C69.8584 24.08 69.3364 22.9249 68.2612 22.6269L46.7559 16.6644C46.4871 16.5899 46.2192 16.5594 45.9672 16.5711V16.5711Z" fill="#FF9222"/>
<path opacity="0.995" d="M68.3579 70.7232L65.5444 63.2375L66.6191 51.1255H70.0967L71.1713 63.2375L68.3579 70.7232Z" fill="#FF9222"/>
<path opacity="0.995" d="M68.3378 52.1383C69.521 52.1383 70.4802 51.1462 70.4802 49.9224C70.4802 48.6986 69.521 47.7065 68.3378 47.7065C67.1545 47.7065 66.1953 48.6986 66.1953 49.9224C66.1953 51.1462 67.1545 52.1383 68.3378 52.1383Z" fill="#3A57FE"/>
</g>
</g>
</g>
<path d="M43.808 19.1582C46.6072 19.1582 48.8763 18.0924 48.8763 16.7776C48.8763 15.4629 46.6072 14.397 43.808 14.397C41.0089 14.397 38.7397 15.4629 38.7397 16.7776C38.7397 18.0924 41.0089 19.1582 43.808 19.1582Z" fill="#3A57FE" stroke="#3251FE" stroke-width="0.216" stroke-linecap="round" stroke-linejoin="round"/>
</g>
</svg>
