<svg width="77" height="78" viewBox="0 0 77 78" fill="none" xmlns="http://www.w3.org/2000/svg">
<path opacity="0.997" d="M72.5078 41.2458C72.5078 45.965 71.5783 50.638 69.7723 54.9979C67.9664 59.3579 65.3193 63.3194 61.9824 66.6564C58.6454 69.9934 54.6839 72.6404 50.3239 74.4463C45.964 76.2523 41.291 77.1817 36.5719 77.1817C27.0411 77.1817 17.9008 73.3956 11.1615 66.6563C4.42229 59.917 0.636229 50.7766 0.63623 41.2458C0.636232 31.715 4.42229 22.5746 11.1615 15.8353C17.9008 9.09602 27.0411 5.3099 36.5719 5.30987C41.291 5.30985 45.964 6.23935 50.3239 8.04529C54.6839 9.85123 58.6454 12.4983 61.9824 15.8352C65.3193 19.1722 67.9663 23.1337 69.7723 27.4937C71.5782 31.8536 72.5078 36.5266 72.5078 41.2458Z" fill="#047801"/>
<path opacity="0.997" d="M77 36.7541C77 41.4733 76.0705 46.1463 74.2646 50.5062C72.4586 54.8662 69.8116 58.8277 66.4747 62.1647C63.1377 65.5016 59.1762 68.1487 54.8163 69.9546C50.4563 71.7605 45.7834 72.6901 41.0642 72.69C36.3451 72.69 31.6721 71.7605 27.3122 69.9546C22.9523 68.1487 18.9907 65.5016 15.6538 62.1647C12.3168 58.8277 9.66981 54.8662 7.86387 50.5062C6.05792 46.1463 5.12842 41.4733 5.12842 36.7541C5.12842 32.0349 6.05793 27.362 7.86387 23.002C9.66981 18.6421 12.3168 14.6805 15.6538 11.3436C18.9907 8.0066 22.9523 5.35958 27.3122 3.55363C31.6721 1.74769 36.3451 0.818179 41.0642 0.818184C45.7834 0.818178 50.4563 1.74768 54.8163 3.55363C59.1762 5.35958 63.1377 8.0066 66.4747 11.3436C69.8116 14.6805 72.4586 18.6421 74.2646 23.002C76.0705 27.362 77 32.0349 77 36.7541Z" fill="#06BD01"/>
<g filter="url(#filter0_f)">
<path d="M38.355 52.2225H41.7995C41.7995 52.2225 43.9927 59.3346 41.7995 61.5278C40.9876 62.3397 39.1669 62.3397 38.355 61.5278C36.1618 59.3346 38.355 52.2225 38.355 52.2225ZM38.8178 51.4V23.2784L41.2855 22.7129V51.5028L38.8178 51.4ZM38.355 13.6132C39.1669 12.8014 40.9876 12.8014 41.7995 13.6132C43.7989 15.6126 41.7995 22.096 41.7995 22.096L38.355 22.61C38.355 22.61 36.2345 15.7338 38.355 13.6132ZM49.7167 28.5737C49.1782 28.6944 49.0311 28.0082 48.3801 27.5969C47.7629 27.1856 46.9921 26.7915 46.0667 26.4145C45.1756 26.0374 44.1987 25.7119 43.1362 25.4377C42.0738 25.1292 40.9941 24.975 39.8974 24.975C37.978 24.975 36.5215 25.3348 35.5275 26.0546C34.5678 26.7743 34.0881 27.7854 34.0881 29.0878C34.0881 30.0817 34.3963 30.87 35.0134 31.4527C35.6306 32.0353 36.5557 32.5323 37.7896 32.9436C39.0234 33.3549 40.5657 33.8005 42.4164 34.2803C44.8156 34.8629 46.8892 35.5827 48.6371 36.4395C50.4193 37.2621 51.7732 38.3588 52.6985 39.7298C53.6582 41.0665 54.138 42.8487 54.138 45.0765C54.138 47.0301 53.7781 48.7095 53.0584 50.1147C52.3385 51.4857 51.3447 52.5996 50.0766 53.4564C48.8085 54.3132 47.3519 54.9473 45.7068 55.3586C44.096 55.7356 42.3994 55.9241 40.6172 55.9241C38.8006 55.9241 36.9669 55.7356 35.1162 55.3586C33.2997 54.9816 31.5518 54.4503 29.8723 53.7649C28.2273 53.0451 25.8015 52.8693 25.2968 51.1943C24.6359 49.0002 26.2 45.5918 28.4328 45.0765C29.101 44.9224 29.2897 45.7962 30.078 46.3103C30.8663 46.7902 31.8088 47.2871 32.9055 47.8012C34.0366 48.2811 35.2705 48.6924 36.6071 49.0351C37.9781 49.3778 39.3491 49.5492 40.72 49.5492C42.6393 49.5492 44.0959 49.2236 45.0898 48.5724C46.0838 47.9212 46.5807 46.9958 46.5807 45.7963C46.5807 44.6995 46.1865 43.8427 45.3983 43.2257C44.61 42.6088 43.4961 42.0776 42.0565 41.632C40.6513 41.1522 39.0063 40.6381 37.1212 40.0897C34.7907 39.4385 32.8541 38.7187 31.3118 37.9304C29.7695 37.1079 28.6214 36.0797 27.8674 34.8458C27.1133 33.612 26.7363 32.0696 26.7363 30.2189C26.7363 27.7169 27.336 25.6262 28.5357 23.9468C29.7353 22.2331 31.3461 20.9478 33.3683 20.091C35.3904 19.1999 37.6353 18.7543 40.1031 18.7543C41.8168 18.7543 43.4275 18.9428 44.9355 19.3198C46.4778 19.6968 47.9174 20.1938 49.2541 20.8107C50.5908 21.4277 52.4708 21.4967 52.8527 22.8157C53.4604 24.915 51.8493 28.0957 49.7167 28.5737Z" fill="#047801"/>
</g>
<path d="M39.2696 50.6576H42.714C42.714 50.6576 44.9073 57.7696 42.714 59.9629C41.9022 60.7747 40.0814 60.7747 39.2696 59.9629C37.0764 57.7696 39.2696 50.6576 39.2696 50.6576ZM39.7323 49.835V21.7135L42.2 21.148V49.9378L39.7323 49.835ZM39.2696 12.0483C40.0814 11.2364 41.9022 11.2364 42.714 12.0483C44.7135 14.0477 42.714 20.531 42.714 20.531L39.2696 21.0451C39.2696 21.0451 37.149 14.1689 39.2696 12.0483ZM50.6313 27.0087C50.0928 27.1294 49.9456 26.4432 49.2946 26.032C48.6775 25.6206 47.9066 25.2265 46.9812 24.8495C46.0901 24.4725 45.1132 24.1469 44.0508 23.8727C42.9883 23.5643 41.9087 23.41 40.8119 23.41C38.8926 23.41 37.436 23.7699 36.4421 24.4896C35.4824 25.2094 35.0026 26.2205 35.0026 27.5229C35.0026 28.5168 35.3108 29.3051 35.928 29.8877C36.5451 30.4704 37.4703 30.9674 38.7041 31.3786C39.9379 31.79 41.4802 32.2355 43.331 32.7153C45.7301 33.298 47.8037 34.0177 49.5517 34.8746C51.3339 35.6971 52.6877 36.7939 53.6131 38.1648C54.5728 39.5015 55.0526 41.2837 55.0526 43.5115C55.0526 45.4651 54.6927 47.1445 53.973 48.5497C53.2531 49.9207 52.2592 51.0346 50.9912 51.8914C49.723 52.7483 48.2664 53.3823 46.6213 53.7936C45.0105 54.1706 43.3139 54.3591 41.5317 54.3591C39.7152 54.3591 37.8815 54.1706 36.0307 53.7936C34.2143 53.4166 32.4663 52.8854 30.7869 52.1999C29.1418 51.4801 26.716 51.3044 26.2114 49.6294C25.5505 47.4352 27.1145 44.0268 29.3474 43.5115C30.0156 43.3574 30.2042 44.2313 30.9926 44.7454C31.7808 45.2252 32.7233 45.7222 33.8201 46.2363C34.9511 46.7161 36.185 47.1274 37.5217 47.4701C38.8926 47.8129 40.2636 47.9843 41.6346 47.9843C43.5539 47.9843 45.0104 47.6586 46.0044 47.0075C46.9983 46.3563 47.4952 45.4309 47.4952 44.2313C47.4952 43.1345 47.1011 42.2777 46.3128 41.6608C45.5246 41.0438 44.4106 40.5126 42.9711 40.0671C41.5659 39.5872 39.9208 39.0731 38.0358 38.5247C35.7052 37.8735 33.7687 37.1538 32.2264 36.3655C30.684 35.5429 29.5359 34.5147 28.7819 33.2809C28.0278 32.047 27.6509 30.5047 27.6509 28.6539C27.6509 26.1519 28.2505 24.0612 29.4502 22.3818C30.6498 20.6681 32.2607 19.3829 34.2828 18.5261C36.305 17.6349 38.5499 17.1894 41.0176 17.1894C42.7313 17.1894 44.3421 17.3779 45.8501 17.7549C47.3924 18.1319 48.8319 18.6289 50.1686 19.2458C51.5053 19.8627 53.3853 19.9318 53.7673 21.2508C54.375 23.3501 52.7639 26.5307 50.6313 27.0087Z" fill="#FBF7F4"/>
<defs>
<filter id="filter0_f" x="24.5914" y="12.4516" width="30.0994" height="50.2378" filterUnits="userSpaceOnUse" color-interpolation-filters="sRGB">
<feFlood flood-opacity="0" result="BackgroundImageFix"/>
<feBlend mode="normal" in="SourceGraphic" in2="BackgroundImageFix" result="shape"/>
<feGaussianBlur stdDeviation="0.276343" result="effect1_foregroundBlur"/>
</filter>
</defs>
</svg>
